<?xml version="1.0" standalone="no"?><!DOCTYPE svg PUBLIC "-//W3C//DTD SVG 1.1//EN" "http://www.w3.org/Graphics/SVG/1.1/DTD/svg11.dtd"><svg t="1652616016556" class="icon" viewBox="0 0 1024 1024" version="1.1" xmlns="http://www.w3.org/2000/svg" p-id="10743" xmlns:xlink="http://www.w3.org/1999/xlink" width="200" height="200"><defs><style type="text/css">@font-face { font-family: feedback-iconfont; src: url("//at.alicdn.com/t/font_1031158_u69w8yhxdu.woff2?t=1630033759944") format("woff2"), url("//at.alicdn.com/t/font_1031158_u69w8yhxdu.woff?t=1630033759944") format("woff"), url("//at.alicdn.com/t/font_1031158_u69w8yhxdu.ttf?t=1630033759944") format("truetype"); }
</style></defs><path d="M307.4 247.7a155 147.7 0 1 0 310 0 155 147.7 0 1 0-310 0Z" fill="#040000" p-id="10744"></path><path d="M824.2 901H626.7c-27.9 0.1-51.6-19.3-55.7-45.5L551.7 736c-4.7-29.3 16.4-56.7 47.1-61.3 10.4-1.5 21-0.3 30.7 3.7l21.4 8.7 34.3-33.5c10.7-10.6 25.5-16.4 40.9-16 15.3 0.2 29.8 6.2 40.3 16.8l32.6 33 23.3-9.1c28.8-11.2 61.7 2 73.5 29.4 3.7 8.6 5 18 3.7 27.3 0 0.7-0.2 1.4-0.4 2.2L880 855.6c-4.1 26.2-27.9 45.6-55.8 45.4z" fill="#040000" p-id="10745"></path><path d="M512.2 864.1l-19.3-119.3c-9.7-60.2 33.7-116.5 96.8-125.8 5.8-0.8 11.7-1.3 17.5-1.3 9.6 0 19.1 1.1 28.3 3.4l7.1-6.8c14.7-14.4 33.2-24.6 53.6-29.6l-2-31.7c2.5-15.9-6.6-31.3-22.1-37.6-31-12.5-64.3-18.9-97.9-18.8H350.5C211.7 496.7 99.3 603.7 99 736v28.3c0.1 62.7 53.4 113.6 119.2 113.7h297.3c-1.4-4.6-2.5-9.3-3.3-13.9z" fill="#040000" p-id="10746"></path></svg>