<?xml version="1.0" standalone="no"?><!DOCTYPE svg PUBLIC "-//W3C//DTD SVG 1.1//EN" "http://www.w3.org/Graphics/SVG/1.1/DTD/svg11.dtd"><svg t="1652608137303" class="icon" viewBox="0 0 1024 1024" version="1.1" xmlns="http://www.w3.org/2000/svg" p-id="2944" xmlns:xlink="http://www.w3.org/1999/xlink" width="200" height="200"><defs><style type="text/css">@font-face { font-family: feedback-iconfont; src: url("//at.alicdn.com/t/font_1031158_u69w8yhxdu.woff2?t=1630033759944") format("woff2"), url("//at.alicdn.com/t/font_1031158_u69w8yhxdu.woff?t=1630033759944") format("woff"), url("//at.alicdn.com/t/font_1031158_u69w8yhxdu.ttf?t=1630033759944") format("truetype"); }
</style></defs><path d="M511.796585 717.908225a358.954113 358.954113 0 0 1 0-717.908225c88.658009 0 155.151515 22.164502 216.768831 72.921212a33.246753 33.246753 0 1 1-42.334199 51.2C637.247668 83.781818 585.050265 66.493506 511.796585 66.493506a292.460606 292.460606 0 1 0 292.460606 292.460607c0-35.241558 0-47.764502-9.752381-75.248485a33.246753 33.246753 0 0 1 63.058009-21.277922 254.891775 254.891775 0 0 1 13.187879 96.526407 359.397403 359.397403 0 0 1-358.954113 358.954112z" fill="#437DFF" p-id="2945"></path><path d="M511.796585 717.908225a358.954113 358.954113 0 0 1 0-717.908225c88.658009 0 155.151515 22.164502 216.768831 72.921212a33.246753 33.246753 0 1 1-42.334199 51.2C637.247668 83.781818 585.050265 66.493506 511.796585 66.493506a292.460606 292.460606 0 1 0 292.460606 292.460607 33.246753 33.246753 0 0 1 66.493507 0 359.397403 359.397403 0 0 1-358.954113 358.954112z" fill="#FFE164" p-id="2946"></path><path d="M511.796585 717.908225a358.954113 358.954113 0 0 1 0-717.908225c88.658009 0 155.151515 22.164502 216.768831 72.921212a33.246753 33.246753 0 1 1-42.334199 51.2C637.247668 83.781818 585.050265 66.493506 511.796585 66.493506a292.460606 292.460606 0 1 0 288.138528 341.887446 33.246753 33.246753 0 1 1 65.606927 11.082251 357.845887 357.845887 0 0 1-353.745455 298.445022z" fill="#E84842" p-id="2947"></path><path d="M791.623425 225.412987A33.246753 33.246753 0 0 1 762.366282 208.013853a123.5671 123.5671 0 0 0-25.15671-35.574026l49.537663-44.329004-24.824243 22.164502 25.045888-22.164502a184.187013 184.187013 0 0 1 33.800865 48.096969 33.246753 33.246753 0 0 1-13.409523 45.43723 32.360173 32.360173 0 0 1-15.736797 3.767965z" fill="#494949" p-id="2948"></path><path d="M511.796585 717.908225a358.954113 358.954113 0 0 1 0-717.908225c88.658009 0 155.151515 22.164502 216.768831 72.921212a33.246753 33.246753 0 1 1-42.334199 51.2C637.247668 83.781818 585.050265 66.493506 511.796585 66.493506a292.460606 292.460606 0 1 0 266.638961 412.703031 33.246753 33.246753 0 1 1 60.619914 27.37316 359.840693 359.840693 0 0 1-327.258875 211.338528z" fill="#494949" p-id="2949"></path><path d="M730.892689 392.200866a33.246753 33.246753 0 0 1-33.246753-33.246753 186.070996 186.070996 0 0 0-185.849351-185.849351 33.246753 33.246753 0 0 1 0-66.493507 252.675325 252.675325 0 0 1 252.342857 252.342858 33.246753 33.246753 0 0 1-33.246753 33.246753z" fill="#FFE164" p-id="2950"></path><path d="M630.709139 406.94026a33.246753 33.246753 0 0 1-33.246753-33.246754 100.516017 100.516017 0 0 0-100.405195-100.405194 33.246753 33.246753 0 0 1 0-66.493507 167.120346 167.120346 0 0 1 166.898702 166.898701 33.246753 33.246753 0 0 1-33.246754 33.246754z" fill="#437DFF" p-id="2951"></path><path d="M529.63901 449.163636a33.246753 33.246753 0 0 1-33.246754-33.246753 41.558442 41.558442 0 0 0-41.558441-41.558441 33.246753 33.246753 0 0 1 0-66.493507A108.162771 108.162771 0 0 1 562.885763 415.916883a33.246753 33.246753 0 0 1-33.246753 33.246753z" fill="#E84842" p-id="2952"></path><path d="M676.035546 1024H347.557624a66.493506 66.493506 0 0 1-66.493506-66.493506v-75.359308a230.954113 230.954113 0 0 1 230.732467-230.732467A230.954113 230.954113 0 0 1 742.529053 882.147186v75.359308a66.493506 66.493506 0 0 1-66.493507 66.493506zM511.796585 717.908225A164.460606 164.460606 0 0 0 347.557624 882.147186v75.359308h328.477922v-75.359308a164.460606 164.460606 0 0 0-164.238961-164.238961z" fill="#494949" p-id="2953"></path></svg>