<?xml version="1.0" standalone="no"?><!DOCTYPE svg PUBLIC "-//W3C//DTD SVG 1.1//EN" "http://www.w3.org/Graphics/SVG/1.1/DTD/svg11.dtd"><svg t="1652873835390" class="icon" viewBox="0 0 1024 1024" version="1.1" xmlns="http://www.w3.org/2000/svg" p-id="49456" xmlns:xlink="http://www.w3.org/1999/xlink" width="200" height="200"><defs><style type="text/css">@font-face { font-family: feedback-iconfont; src: url("//at.alicdn.com/t/font_1031158_u69w8yhxdu.woff2?t=1630033759944") format("woff2"), url("//at.alicdn.com/t/font_1031158_u69w8yhxdu.woff?t=1630033759944") format("woff"), url("//at.alicdn.com/t/font_1031158_u69w8yhxdu.ttf?t=1630033759944") format("truetype"); }
</style></defs><path d="M512 1024c-136.762416 0-265.277852-53.147204-361.950783-150.049217C53.147204 777.277852 0 648.762416 0 512s53.147204-265.277852 150.049217-361.950783C246.722148 53.147204 375.237584 0 512 0s265.277852 53.147204 361.950783 150.049217c96.672931 96.672931 150.049217 225.188367 150.049217 361.950783s-53.147204 265.277852-150.049217 361.950783c-96.672931 96.902013-225.188367 150.049217-361.950783 150.049217z m0-998.800895C243.514989 25.199105 25.199105 243.514989 25.199105 512S243.514989 998.800895 512 998.800895 998.800895 780.485011 998.800895 512 780.485011 25.199105 512 25.199105z" fill="#5EC841" p-id="49457"></path><path d="M678.543177 795.146309H345.456823c-64.601342 0-117.519463-52.918121-117.519463-117.519463v-323.006712c0-64.601342 52.918121-117.519463 117.519463-117.519463h333.086354c64.601342 0 117.519463 52.918121 117.519463 117.519463v323.006712c0 64.601342-52.918121 117.519463-117.519463 117.519463z" fill="#5EC841" p-id="49458"></path><path d="M699.847875 427.239374h-375.69575c-15.806711 0-28.635347-12.828635-28.635346-28.635347s12.828635-28.635347 28.635346-28.635347h375.69575c15.806711 0 28.635347 12.828635 28.635346 28.635347s-12.828635 28.635347-28.635346 28.635347zM599.051454 555.525727h-279.480984c-12.599553 0-22.908277-10.308725-22.908278-22.908277s10.308725-22.908277 22.908278-22.908278h279.480984c12.599553 0 22.908277 10.308725 22.908278 22.908278s-10.308725 22.908277-22.908278 22.908277zM599.051454 695.266219h-279.480984c-12.599553 0-22.908277-10.308725-22.908278-22.908277s10.308725-22.908277 22.908278-22.908278h279.480984c12.599553 0 22.908277 10.308725 22.908278 22.908278s-10.308725 22.908277-22.908278 22.908277z" fill="#FFFFFF" p-id="49459"></path></svg>