<?xml version="1.0" standalone="no"?><!DOCTYPE svg PUBLIC "-//W3C//DTD SVG 1.1//EN" "http://www.w3.org/Graphics/SVG/1.1/DTD/svg11.dtd"><svg t="1652955716831" class="icon" viewBox="0 0 1024 1024" version="1.1" xmlns="http://www.w3.org/2000/svg" p-id="5027" xmlns:xlink="http://www.w3.org/1999/xlink" width="200" height="200"><defs><style type="text/css">@font-face { font-family: feedback-iconfont; src: url("//at.alicdn.com/t/font_1031158_u69w8yhxdu.woff2?t=1630033759944") format("woff2"), url("//at.alicdn.com/t/font_1031158_u69w8yhxdu.woff?t=1630033759944") format("woff"), url("//at.alicdn.com/t/font_1031158_u69w8yhxdu.ttf?t=1630033759944") format("truetype"); }
</style></defs><path d="M512 530.432m-292.864 0a292.864 292.864 0 1 0 585.728 0 292.864 292.864 0 1 0-585.728 0Z" fill="#D9F5F9" p-id="5028"></path><path d="M984.2688 704.512h-77.2096V486.8096c0-195.584-142.9504-358.1952-329.9328-389.3248 2.4576-7.168 3.8912-14.7456 3.8912-22.7328 0-37.888-30.72-68.608-68.608-68.608s-68.608 30.72-68.608 68.608c0 7.9872 1.4336 15.5648 3.8912 22.7328-186.7776 30.9248-329.728 193.7408-329.728 389.3248V704.512H40.7552c-14.1312 0-25.6 11.4688-25.6 25.6S26.624 755.712 40.7552 755.712h943.5136c14.1312 0 25.6-11.4688 25.6-25.6s-11.4688-25.6-25.6-25.6z m-815.104 0V486.8096C169.1648 297.3696 323.1744 143.36 512.6144 143.36S856.064 297.3696 856.064 486.8096V704.512H169.1648zM691.2 795.648c-14.1312 0-25.6 11.4688-25.6 25.6 0 79.6672-68.8128 144.384-153.6 144.384s-153.6-64.7168-153.6-144.384c0-14.1312-11.4688-25.6-25.6-25.6S307.2 807.1168 307.2 821.248c0 107.9296 91.9552 195.584 204.8 195.584s204.8-87.6544 204.8-195.584c0-14.1312-11.4688-25.6-25.6-25.6z" fill="#7B80E8" p-id="5029"></path><path d="M490.9056 275.456c-45.2608 1.024-87.4496 19.2512-119.1936 51.6096-31.744 32.3584-49.152 75.1616-49.152 120.4224 0 14.1312 11.4688 25.6 25.6 25.6s25.6-11.4688 25.6-25.6c0-65.3312 53.0432-119.6032 118.3744-120.832 14.1312-0.2048 25.3952-12.0832 24.9856-26.2144-0.2048-13.9264-11.8784-25.1904-26.2144-24.9856z" fill="#7B80E8" p-id="5030"></path></svg>