<?xml version="1.0" standalone="no"?><!DOCTYPE svg PUBLIC "-//W3C//DTD SVG 1.1//EN" "http://www.w3.org/Graphics/SVG/1.1/DTD/svg11.dtd"><svg t="1652880677668" class="icon" viewBox="0 0 1024 1024" version="1.1" xmlns="http://www.w3.org/2000/svg" p-id="2255" xmlns:xlink="http://www.w3.org/1999/xlink" width="200" height="200"><defs><style type="text/css">@font-face { font-family: feedback-iconfont; src: url("//at.alicdn.com/t/font_1031158_u69w8yhxdu.woff2?t=1630033759944") format("woff2"), url("//at.alicdn.com/t/font_1031158_u69w8yhxdu.woff?t=1630033759944") format("woff"), url("//at.alicdn.com/t/font_1031158_u69w8yhxdu.ttf?t=1630033759944") format("truetype"); }
</style></defs><path d="M841 959.5 174.2 959.5C112.7 959.5 63 909.7 63 848.3l0-667.2c0-61.4 50.5-116.5 111.9-116.5l447.5 0 0 55.9L174.9 120.5c-30.7 0-56.3 29.8-56.3 60.5l0 667.2c0 30.7 24.9 55.6 55.6 55.6L841 903.8c30.7 0 61.1-25.5 61.1-56.2L902.1 400.3l56 0 0 447.4C958.1 909.1 902.4 959.5 841 959.5L841 959.5 841 959.5zM508.9 690.1c-8.1 8.1-18.3 12.2-28.8 14.2L236.7 824.7c-27.4 12.7-49.3-11.8-39.2-39.2L317.8 542c2-10.5 6.1-20.7 14.2-28.8L764.3 80.7c21.7-21.7 56.9-21.7 78.6 0l98.3 98.3c21.7 21.7 21.7 56.9 0 78.6L508.9 690.1 508.9 690.1 508.9 690.1zM250.7 751.8c-6.3 12.8 5.9 26 19.6 19.7l150.3-91-78.9-78.9L250.7 751.8 250.7 751.8 250.7 751.8zM391 572.2l58.9 58.9c10.9 10.9-17.2-17.2 19.7 19.7l314.4-314.5L685 238.7 371.4 552.5C381.8 563 380.1 561.3 391 572.2L391 572.2 391 572.2zM882.2 198.7l-58.9-59c-10.9-10.8-28.5-10.8-39.3 0l-57.5 57.6 96.8 99.7 58.9-59C893 227.2 893 209.5 882.2 198.7L882.2 198.7 882.2 198.7z" p-id="2256"></path></svg>