<?xml version="1.0" standalone="no"?><!DOCTYPE svg PUBLIC "-//W3C//DTD SVG 1.1//EN" "http://www.w3.org/Graphics/SVG/1.1/DTD/svg11.dtd"><svg t="1652764344520" class="icon" viewBox="0 0 1024 1024" version="1.1" xmlns="http://www.w3.org/2000/svg" p-id="2795" xmlns:xlink="http://www.w3.org/1999/xlink" width="200" height="200"><defs><style type="text/css">@font-face { font-family: feedback-iconfont; src: url("//at.alicdn.com/t/font_1031158_u69w8yhxdu.woff2?t=1630033759944") format("woff2"), url("//at.alicdn.com/t/font_1031158_u69w8yhxdu.woff?t=1630033759944") format("woff"), url("//at.alicdn.com/t/font_1031158_u69w8yhxdu.ttf?t=1630033759944") format("truetype"); }
</style></defs><path d="M824.490667 270.08h-85.12v157.653333a21.333333 21.333333 0 0 0 21.333333 21.333334H960l-135.509333-178.986667z m35.242666 4.117333l127.04 181.44a21.333333 21.333333 0 0 1-17.493333 33.578667H746.666667a42.666667 42.666667 0 0 1-42.666667-42.666667V256h120.789333a42.666667 42.666667 0 0 1 34.944 18.197333z" p-id="2796"></path><path d="M42.666667 298.666667h554.666666v85.333333H42.666667z" p-id="2797"></path><path d="M704 512m21.333333 0l85.333334 0q21.333333 0 21.333333 21.333333l0 0q0 21.333333-21.333333 21.333334l-85.333334 0q-21.333333 0-21.333333-21.333334l0 0q0-21.333333 21.333333-21.333333Z" p-id="2798"></path><path d="M563.541333 106.666667C604.757333 106.666667 640 137.002667 640 177.024V789.333333H381.845333a105.813333 105.813333 0 0 0 0-42.666666H576a21.333333 21.333333 0 0 0 21.333333-21.333334V170.666667a21.333333 21.333333 0 0 0-21.333333-21.333334H85.333333a42.666667 42.666667 0 0 0-42.666666 42.666667v512a42.666667 42.666667 0 0 0 42.666666 42.666667h87.509334a105.92 105.92 0 0 0 0 42.666666h-96.426667C35.242667 789.333333 0 758.976 0 718.954667V177.066667C0 137.002667 35.242667 106.666667 76.416 106.666667h487.125333z" p-id="2799"></path><path d="M814.869333 234.666667c20.736 0 40.405333 10.112 52.522667 27.477333l145.28 210.538667c6.997333 10.048 10.88 21.973333 11.2 32.725333 0.042667 0.810667 0.085333 2.282667 0.085333 4.992L1024 593.237333V746.666667A42.666667 42.666667 0 0 1 981.333333 789.333333h-66.133333a107.050667 107.050667 0 0 0-6.762667-64H960a21.333333 21.333333 0 0 0 21.184-18.837333L981.333333 704l-0.042666-187.306667a42.666667 42.666667 0 0 0-7.957334-24.789333l-140.714666-196.736A42.666667 42.666667 0 0 0 797.909333 277.333333H640v448h72.896A107.093333 107.093333 0 0 0 706.133333 789.333333L597.333333 789.333333V234.666667h217.536zM277.333333 618.666667c81.877333 0 149.333333 66.56 149.333334 149.333333 0 82.858667-67.413333 149.333333-149.333334 149.333333-81.941333 0-149.333333-66.474667-149.333333-149.333333 0-82.816 67.413333-149.333333 149.333333-149.333333z m-0.021333 42.666666C217.962667 661.333333 170.666667 709.973333 170.666667 768.021333 170.666667 826.069333 217.941333 874.666667 277.312 874.666667 336.682667 874.666667 384 826.069333 384 768.021333 384 709.994667 336.64 661.333333 277.312 661.333333z" p-id="2800"></path><path d="M810.666667 618.666667c81.877333 0 149.333333 66.56 149.333333 149.333333 0 82.858667-67.413333 149.333333-149.333333 149.333333-81.941333 0-149.333333-66.474667-149.333334-149.333333 0-82.816 67.413333-149.333333 149.333334-149.333333z m-0.021334 42.666666C751.296 661.333333 704 709.973333 704 768.021333 704 826.069333 751.274667 874.666667 810.645333 874.666667 870.016 874.666667 917.333333 826.069333 917.333333 768.021333 917.333333 709.994667 869.973333 661.333333 810.645333 661.333333zM192 768.021333C192 814.464 229.824 853.333333 277.312 853.333333A85.546667 85.546667 0 0 0 362.666667 768.021333C362.666667 721.6 324.778667 682.666667 277.312 682.666667 229.845333 682.666667 192 721.578667 192 768.021333z" p-id="2801"></path><path d="M725.333333 768.021333C725.333333 814.464 763.157333 853.333333 810.645333 853.333333A85.546667 85.546667 0 0 0 896 768.021333C896 721.6 858.112 682.666667 810.645333 682.666667 763.178667 682.666667 725.333333 721.578667 725.333333 768.021333z" p-id="2802"></path></svg>