<?xml version="1.0" standalone="no"?><!DOCTYPE svg PUBLIC "-//W3C//DTD SVG 1.1//EN" "http://www.w3.org/Graphics/SVG/1.1/DTD/svg11.dtd"><svg t="1652873652045" class="icon" viewBox="0 0 1024 1024" version="1.1" xmlns="http://www.w3.org/2000/svg" p-id="29666" xmlns:xlink="http://www.w3.org/1999/xlink" width="200" height="200"><defs><style type="text/css">@font-face { font-family: feedback-iconfont; src: url("//at.alicdn.com/t/font_1031158_u69w8yhxdu.woff2?t=1630033759944") format("woff2"), url("//at.alicdn.com/t/font_1031158_u69w8yhxdu.woff?t=1630033759944") format("woff"), url("//at.alicdn.com/t/font_1031158_u69w8yhxdu.ttf?t=1630033759944") format("truetype"); }
</style></defs><path d="M512 1024C229.2352 1024 0 794.7648 0 512S229.2352 0 512 0s512 229.2352 512 512-229.2352 512-512 512z m204.2624-340.928h37.312a38.4 38.4 0 0 0 38.4-38.4v-107.8784a56.832 56.832 0 0 0-9.5872-31.5776l-89.4464-122.8544a64 64 0 0 0-51.7376-26.3168h-61.5424v-18.0224A43.6224 43.6224 0 0 0 536.0384 294.4H332.8a64 64 0 0 0-64 64v286.272a38.4 38.4 0 0 0 38.4 38.4h38.3104a64.5632 64.5632 0 0 0 126.1696 0h118.4a64.5632 64.5632 0 0 0 126.1824 0z m0.3584-25.6a64.5632 64.5632 0 0 0-126.8864 0h-117.696a64.5632 64.5632 0 0 0-126.8864 0H307.2a12.8 12.8 0 0 1-12.8-12.8V358.4a38.4 38.4 0 0 1 38.4-38.4h203.2384c9.9456 0 18.0224 8.064 18.0224 18.0224v18.0224a25.6 25.6 0 0 0 25.6 25.6h61.5424a38.4 38.4 0 0 1 31.04 15.7952l89.1648 122.4192c3.136 4.7232 4.9664 10.752 4.9664 16.9344v107.8784a12.8 12.8 0 0 1-12.8 12.8h-36.9536zM408.576 708.3264a38.9376 38.9376 0 1 1 0-77.8752 38.9376 38.9376 0 0 1 0 77.8752z m244.5824 0a38.9376 38.9376 0 1 1 0-77.8752 38.9376 38.9376 0 0 1 0 77.8752z m-93.568-260.8v62.016a25.6 25.6 0 0 0 25.6 25.6h67.968a12.8 12.8 0 1 0 0-25.6h-67.968v-62.016a12.8 12.8 0 1 0-25.6 0z" fill="#31BF5D" p-id="29667"></path></svg>