<?xml version="1.0" standalone="no"?><!DOCTYPE svg PUBLIC "-//W3C//DTD SVG 1.1//EN" "http://www.w3.org/Graphics/SVG/1.1/DTD/svg11.dtd"><svg t="1652763574415" class="icon" viewBox="0 0 1024 1024" version="1.1" xmlns="http://www.w3.org/2000/svg" p-id="1997" xmlns:xlink="http://www.w3.org/1999/xlink" width="200" height="200"><defs><style type="text/css">@font-face { font-family: feedback-iconfont; src: url("//at.alicdn.com/t/font_1031158_u69w8yhxdu.woff2?t=1630033759944") format("woff2"), url("//at.alicdn.com/t/font_1031158_u69w8yhxdu.woff?t=1630033759944") format("woff"), url("//at.alicdn.com/t/font_1031158_u69w8yhxdu.ttf?t=1630033759944") format("truetype"); }
</style></defs><path d="M670.55000029 237.23749971V298.99999971h159.56249942l55.35 273.00000058h-201.67499971l-79.27499971 107.96249971H419.525L340.25000029 571.9625H140.6375l56.25-272.99999971h156.56249971V237.23749971H147.42500029L62 613.32499971l85.79999971 339.56250029h728.40000058L962 613.32499971 876.57499971 237.23749971h-206.02499942z m155.25 649.38750029H198.0125l-60.67500029-254.73750029h170.8875l78.48750058 100.125h249.56249942l78.82500058-100.125h172.49999942l-61.79999942 254.73750029zM379.85000029 511.1V215.82500029L340.92500029 190.62500029 512 62l171.07499971 128.5875-38.99999971 25.23750029v295.27499971H379.88749971z m40.42499942-330.90000029v289.87500058h183.45000058v-289.87500058L512 113.90000029 420.27499971 180.19999971z" p-id="1998"></path></svg>