<?xml version="1.0" standalone="no"?><!DOCTYPE svg PUBLIC "-//W3C//DTD SVG 1.1//EN" "http://www.w3.org/Graphics/SVG/1.1/DTD/svg11.dtd"><svg t="1652718679761" class="icon" viewBox="0 0 1024 1024" version="1.1" xmlns="http://www.w3.org/2000/svg" p-id="866" xmlns:xlink="http://www.w3.org/1999/xlink" width="200" height="200"><defs><style type="text/css">@font-face { font-family: feedback-iconfont; src: url("//at.alicdn.com/t/font_1031158_u69w8yhxdu.woff2?t=1630033759944") format("woff2"), url("//at.alicdn.com/t/font_1031158_u69w8yhxdu.woff?t=1630033759944") format("woff"), url("//at.alicdn.com/t/font_1031158_u69w8yhxdu.ttf?t=1630033759944") format("truetype"); }
</style></defs><path d="M405.32 693.72c0-159.15 129.05-288.2 288.2-288.2a285.53 285.53 0 0 1 75.84 10.2V162.83a60.78 60.78 0 0 0-60.67-60.67H162.63A60.79 60.79 0 0 0 102 162.83v637.06a60.79 60.79 0 0 0 60.67 60.68h295.9a286.65 286.65 0 0 1-53.21-166.85zM253.64 223.5h364a30.34 30.34 0 1 1 0 60.68h-364a30.34 30.34 0 1 1 0-60.68z m0 182H375a30.34 30.34 0 0 1 0 60.68H253.64a30.34 30.34 0 1 1 0-60.68z m60.67 242.69h-60.67a30.34 30.34 0 1 1 0-60.67h60.67a30.34 30.34 0 1 1 0 60.67z m0 0" fill="#05C697" p-id="867"></path><path d="M693.4 466.08c-125.73 0-227.64 101.91-227.64 227.64S567.67 921.36 693.4 921.36 921 819.45 921 693.72 819.13 466.08 693.4 466.08z m130.12 187.19L693.38 783.41a20.63 20.63 0 0 1-1.65 1.87 22.07 22.07 0 0 1-31.11 0l-82-82a22.05 22.05 0 0 1 0-31.11 22.05 22.05 0 0 1 31.11 0l66.36 66.36 116.32-116.37a22.05 22.05 0 0 1 31.11 0 22.05 22.05 0 0 1 0 31.11z" fill="#05C697" p-id="868"></path></svg>