<?xml version="1.0" standalone="no"?><!DOCTYPE svg PUBLIC "-//W3C//DTD SVG 1.1//EN" "http://www.w3.org/Graphics/SVG/1.1/DTD/svg11.dtd"><svg t="1653015964681" class="icon" viewBox="0 0 1024 1024" version="1.1" xmlns="http://www.w3.org/2000/svg" p-id="4768" xmlns:xlink="http://www.w3.org/1999/xlink" width="200" height="200"><defs><style type="text/css">@font-face { font-family: feedback-iconfont; src: url("//at.alicdn.com/t/font_1031158_u69w8yhxdu.woff2?t=1630033759944") format("woff2"), url("//at.alicdn.com/t/font_1031158_u69w8yhxdu.woff?t=1630033759944") format("woff"), url("//at.alicdn.com/t/font_1031158_u69w8yhxdu.ttf?t=1630033759944") format("truetype"); }
</style></defs><path d="M900.3 377.3c-14.8 0-26.7 12-26.7 26.7v366c0 10.6-8.6 19.2-19.2 19.2H169.6c-10.6 0-19.2-8.6-19.2-19.2V259c0-10.6 8.6-19.2 19.2-19.2h453c14.8 0 26.7-12 26.7-26.7s-12-26.7-26.7-26.7h-453c-40 0-72.6 32.6-72.6 72.6v511c0 40 32.6 72.6 72.6 72.6h684.8c40 0 72.6-32.6 72.6-72.6V404c0-14.8-12-26.7-26.7-26.7z" fill="#ACBEC9" p-id="4769"></path><path d="M243.4 382.9h140.1c12.9 0 23.4-10.5 23.4-23.4s-10.5-23.4-23.4-23.4H243.4c-12.9 0-23.4 10.5-23.4 23.4s10.5 23.4 23.4 23.4zM243.4 535.2h140.1c12.9 0 23.4-10.5 23.4-23.4 0-12.9-10.5-23.4-23.4-23.4H243.4c-12.9 0-23.4 10.5-23.4 23.4 0.1 12.9 10.5 23.4 23.4 23.4zM243.4 687.5h537.1c12.9 0 23.4-10.5 23.4-23.4s-10.5-23.4-23.4-23.4H243.4c-12.9 0-23.4 10.5-23.4 23.4s10.5 23.4 23.4 23.4z" fill="#EB5F9D" p-id="4770"></path><path d="M486.9 490.7l-1.6 73.1c-0.2 7.3 2.7 14.3 7.8 19.5 5 5 11.8 7.8 18.9 7.8h0.6l73.1-1.7c6.9-0.2 13.4-3 18.3-7.8L831.6 354l55.7-55.7c10.4-10.4 10.4-27.3 0-37.8l-71.4-71.4c-5-5-11.8-7.8-18.9-7.8-7.1 0-13.9 2.8-18.9 7.8l-55.7 55.7-227.6 227.7c-4.9 4.8-7.7 11.4-7.9 18.2z m343.7-211.2l-17.9 17.9-33.7-33.7 17.9-17.9 33.7 33.7zM540.1 502.7l201.2-201.2 33.7 33.7-201.2 201.1-34.4 0.8 0.7-34.4z" fill="#ACBEC9" p-id="4771"></path></svg>