<?xml version="1.0" standalone="no"?><!DOCTYPE svg PUBLIC "-//W3C//DTD SVG 1.1//EN" "http://www.w3.org/Graphics/SVG/1.1/DTD/svg11.dtd"><svg t="1653061745236" class="icon" viewBox="0 0 1024 1024" version="1.1" xmlns="http://www.w3.org/2000/svg" p-id="4864" xmlns:xlink="http://www.w3.org/1999/xlink" width="200" height="200"><defs><style type="text/css">@font-face { font-family: feedback-iconfont; src: url("//at.alicdn.com/t/font_1031158_u69w8yhxdu.woff2?t=1630033759944") format("woff2"), url("//at.alicdn.com/t/font_1031158_u69w8yhxdu.woff?t=1630033759944") format("woff"), url("//at.alicdn.com/t/font_1031158_u69w8yhxdu.ttf?t=1630033759944") format("truetype"); }
</style></defs><path d="M285.54 525.72H876s102.86 0 102.86-102.86V148.004H191.36" fill="#9CCFFF" p-id="4865"></path><path d="M436 1008.584c-66.172 0-120.008-53.836-120.008-120.008S369.828 768.572 436 768.572s120.004 53.836 120.004 120.008-53.832 120.004-120.004 120.004z m0-180.012c-33.088 0-60.008 26.916-60.008 60.008 0 33.088 26.92 60.008 60.008 60.008s60.004-26.916 60.004-60.008c0-33.096-26.916-60.008-60.004-60.008zM833.78 1008.584c-66.172 0-120.008-53.836-120.008-120.008s53.836-120.008 120.008-120.008c66.176 0 120.012 53.836 120.012 120.008s-53.84 120.008-120.012 120.008z m0-180.012c-33.084 0-60.008 26.916-60.008 60.008 0 33.088 26.916 60.008 60.008 60.008 33.084 0 60.012-26.916 60.012-60.008 0-33.096-26.92-60.008-60.012-60.008z" fill="#6E6E96" p-id="4866"></path><path d="M1008.86 422.856V148a30 30 0 0 0-30-30H210.324C183.652 45.796 102.244 26 60 26c-16.52 0-29.868 13.36-29.936 29.88-0.068 16.52 13.3 29.988 29.82 30.12 3.412 0.028 83.744 1.376 97.056 62.628 17.924 82.456 116.184 447.236 120.296 462.488 0.7 2.664 7.252 26.78 22.872 51.56 23.564 37.38 55.52 57.128 92.416 57.128h573.048c16.572 0 30-13.428 30-30s-13.428-30-30-30H392.524c-38.992 0-57.08-63.296-57.288-64.072-0.2-0.74-4.248-15.772-10.748-40.016H876c53.408 0.004 132.86-35.384 132.86-132.86zM225.544 178h723.316v244.86c0 68.404-60.856 72.692-72.86 72.856H308.44C282.708 399.264 244.968 256.7 225.544 178z" fill="#6E6E96" p-id="4867"></path><path d="M762 248h60v172h-60zM386 248h60v172h-60zM570 248h60v172h-60z" fill="#6E6E96" p-id="4868"></path></svg>